<svg xmlns="http://www.w3.org/2000/svg" width="960" height="520" viewBox="0 0 960 520" role="img" aria-label="">
  <defs>
    <pattern id="grid" width="32" height="32" patternUnits="userSpaceOnUse">
      <path d="M32 0H0V32" fill="none" stroke="#d8dfcf" stroke-width="1"/>
    </pattern>
    <filter id="shadow" x="-20%" y="-20%" width="140%" height="140%">
      <feDropShadow dx="0" dy="14" stdDeviation="12" flood-color="#465346" flood-opacity=".16"/>
    </filter>
  </defs>
  <rect width="960" height="520" fill="#eef3e4"/>
  <rect width="960" height="520" fill="url(#grid)" opacity=".68"/>
  <g filter="url(#shadow)">
    <rect x="110" y="72" width="610" height="380" rx="8" fill="#fffdf5" stroke="#cbd3c3" stroke-width="2"/>
    <path d="M110 150H720M110 220H720M110 290H720M110 360H720" stroke="#d9ded1" stroke-width="2"/>
    <path d="M260 72V452M420 72V452M570 72V452" stroke="#d9ded1" stroke-width="2"/>
    <rect x="110" y="72" width="610" height="78" rx="8" fill="#23352c"/>
    <path d="M110 142H720" stroke="#23352c" stroke-width="16"/>
    <text x="142" y="122" font-family="Arial, sans-serif" font-size="30" font-weight="800" fill="#fffdf5">Panstwa Miasta</text>
    <text x="138" y="196" font-family="Arial, sans-serif" font-size="22" font-weight="700" fill="#2f4638">Panstwo</text>
    <text x="286" y="196" font-family="Arial, sans-serif" font-size="22" font-weight="700" fill="#2f4638">Miasto</text>
    <text x="448" y="196" font-family="Arial, sans-serif" font-size="22" font-weight="700" fill="#2f4638">Rzeka</text>
    <text x="598" y="196" font-family="Arial, sans-serif" font-size="22" font-weight="700" fill="#2f4638">Imie</text>
    <path d="M140 250h74M290 250h74M448 250h74M598 250h74M140 320h74M290 320h74M448 320h74M598 320h74" stroke="#d55138" stroke-width="5" stroke-linecap="round"/>
  </g>
  <g filter="url(#shadow)">
    <rect x="690" y="92" width="150" height="150" rx="18" fill="#d55138"/>
    <circle cx="728" cy="130" r="12" fill="#fffdf5"/>
    <circle cx="802" cy="130" r="12" fill="#fffdf5"/>
    <circle cx="765" cy="167" r="12" fill="#fffdf5"/>
    <circle cx="728" cy="204" r="12" fill="#fffdf5"/>
    <circle cx="802" cy="204" r="12" fill="#fffdf5"/>
  </g>
  <g filter="url(#shadow)">
    <rect x="742" y="282" width="118" height="118" rx="16" fill="#f8cf65"/>
    <text x="800" y="357" text-anchor="middle" font-family="Arial, sans-serif" font-size="64" font-weight="900" fill="#23352c">M</text>
  </g>
</svg>
